<svg xmlns="http://www.w3.org/2000/svg" width="1280" height="720" viewBox="0 0 1280 720"><rect width="1280" height="720" fill="#0f172a"/><rect width="230" height="720" fill="#172554"/><g font-family="Arial,sans-serif"><text x="32" y="62" fill="#e0e7ff" font-size="25" font-weight="700">Inventory</text><rect x="24" y="163" width="182" height="42" rx="8" fill="#4f46e5"/><text x="43" y="190" fill="white" font-size="16">제품 관리</text><text x="282" y="73" fill="white" font-size="30" font-weight="700">제품 관리</text><rect x="282" y="105" width="700" height="44" rx="8" fill="#1e293b"/><text x="304" y="133" fill="#64748b" font-size="15">제품명 또는 카테고리 검색</text><rect x="1080" y="105" width="154" height="44" rx="8" fill="#4f46e5"/><text x="1101" y="133" fill="white" font-size="15">+ 제품 등록</text></g><rect x="282" y="175" width="952" height="481" rx="12" fill="#1e293b" stroke="#334155"/><g fill="#94a3b8" font-family="Arial,sans-serif" font-size="14"><text x="313" y="215">이미지</text><text x="440" y="215">제품명</text><text x="680" y="215">카테고리</text><text x="870" y="215">재고</text><text x="1045" y="215">수정일</text></g><g stroke="#334155"><path d="M306 240h904M306 330h904M306 420h904M306 510h904M306 600h904"/></g><g fill="#334155"><rect x="313" y="258" width="76" height="54" rx="6"/><rect x="313" y="348" width="76" height="54" rx="6"/><rect x="313" y="438" width="76" height="54" rx="6"/><rect x="313" y="528" width="76" height="54" rx="6"/></g><g fill="#e2e8f0" font-family="Arial,sans-serif" font-size="16"><text x="440" y="290">우드 트레이</text><text x="440" y="380">빈티지 화병</text><text x="440" y="470">촬영용 책 세트</text><text x="440" y="560">린넨 테이블보</text></g><g fill="#94a3b8" font-family="Arial,sans-serif" font-size="15"><text x="680" y="290">소품</text><text x="680" y="380">오브제</text><text x="680" y="470">소품</text><text x="680" y="560">패브릭</text><text x="870" y="290">18</text><text x="870" y="380">4</text><text x="870" y="470">12</text><text x="870" y="560">7</text><text x="1045" y="290">2026.09.10</text><text x="1045" y="380">2026.09.09</text></g></svg>
